<?xml version="1.0" encoding="utf-8"?>
<!-- Generator: Adobe Illustrator 19.0.0, SVG Export Plug-In . SVG Version: 6.00 Build 0)  -->
<svg width='200' version="1.2" baseProfile="tiny" id="Layer_1" xmlns="http://www.w3.org/2000/svg" xmlns:xlink="http://www.w3.org/1999/xlink"
	 x="0px" y="0px" viewBox="0 0 308 49.8" xml:space="preserve">
<g>
	<g>
		<path fill="#FFFFFF" d="M53.4,39.5c-3.1,0-5.8-1.1-7.3-2.9v13.2h-4.9V18.1h4.9v2.3c1.6-1.8,4.3-2.9,7.4-2.9
			c6,0,10.1,4.7,10.1,10.7C63.6,34.8,59.1,39.5,53.4,39.5z M52.5,21.6c-4,0-6.6,3.1-6.6,6.8c0,3.8,2.3,7.1,6.5,7.1
			c4,0,6.6-3.3,6.6-7C59,24.8,56.4,21.6,52.5,21.6z"/>
		<path fill="#FFFFFF" d="M78.5,22.7c-0.6-0.3-1.5-0.6-2.8-0.6c-3.3,0-4.7,2.5-4.7,7.2V39h-4.9V18.1H71v2c1.2-1.4,2.9-2.5,5.7-2.5
			c0.6,0,1.4,0.1,1.9,0.3L78.5,22.7L78.5,22.7z"/>
		<path fill="#FFFFFF" d="M90.3,39.5c-6.9,0-11.3-4.8-11.3-11c0-6.4,4.6-11,11.4-11c7,0,11.3,4.9,11.3,11
			C101.7,34.7,97.1,39.5,90.3,39.5z M90.4,21.6c-4.1,0-6.9,3.2-6.9,7c0,3.7,2.5,6.9,6.7,6.9c4.3,0,6.9-3.1,6.9-6.9
			C97.2,24.8,94.6,21.6,90.4,21.6z"/>
		<path fill="#FFFFFF" d="M116.3,39.5c-3.1,0-5.8-1.1-7.3-2.9v13.2h-4.9V18.1h4.9v2.3c1.6-1.8,4.3-2.9,7.4-2.9
			c6,0,10.1,4.7,10.1,10.7C126.4,34.8,122,39.5,116.3,39.5z M115.4,21.6c-4,0-6.6,3.1-6.6,6.8c0,3.8,2.3,7.1,6.5,7.1
			c4,0,6.6-3.3,6.6-7C121.9,24.8,119.3,21.6,115.4,21.6z"/>
		<path fill="#FFFFFF" d="M132.3,29.6c0.2,4,3,6.2,6.5,6.2c2.7,0,4.7-1.4,5.8-3.3l4.2,0.4c-1.5,4.2-5.7,6.6-10.2,6.6
			c-6.6,0-11.2-4.4-11.2-10.9c0-6.4,4.5-11.1,10.9-11.1c6.8,0,10.8,4.6,10.8,12.1H132.3z M132.5,26.1h12.1c-0.6-2.9-2.6-5-5.9-5
			C135.3,21.1,133,23.2,132.5,26.1z"/>
		<path fill="#FFFFFF" d="M164,22.7c-0.6-0.3-1.5-0.6-2.8-0.6c-3.3,0-4.7,2.5-4.7,7.2V39h-4.9V18.1h4.9v2c1.2-1.4,2.9-2.5,5.7-2.5
			c0.6,0,1.4,0.1,1.9,0.3L164,22.7L164,22.7z"/>
		<path fill="#FFFFFF" d="M177.1,18v4.1h-5.2v8.7c0,3.2,1.1,4.4,3.1,4.4c0.8,0,1.5-0.3,2.1-0.5V39c-0.7,0.3-1.9,0.5-2.7,0.5
			c-4.1,0-7.4-2.5-7.4-8v-9.4h-2.5V18h2.5v-6.8h4.8V18H177.1z"/>
		<path fill="#FFFFFF" d="M180,49.8l5.6-12.1l-9.9-19.6h5.5l6.9,14.6l6.6-14.6h5.2L185,49.8H180z"/>
		<path fill="#FFFFFF" d="M204.4,35.1c1.3,0,2.3,1,2.3,2.3c0,1.2-1,2.2-2.3,2.2c-1.2,0-2.2-0.9-2.2-2.2
			C202.2,36,203.2,35.1,204.4,35.1z"/>
		<path fill="#FFFFFF" d="M220.7,39.4c-5.6,0-10.2-4.1-10.2-10.1c0-5.8,4.4-10,10.2-10c2.3,0,4.3,0.6,6,1.9v3.2
			c-1.3-1.4-3.5-2.5-6-2.5c-4.1,0-7.3,3.1-7.3,7.3c0,4.2,3.2,7.4,7.4,7.4c2.6,0,4.5-1,6-2.5v3.2C225.2,38.8,223.2,39.4,220.7,39.4z"
			/>
		<path fill="#FFFFFF" d="M238.6,39.4c-6.1,0-10.1-4.4-10.1-10c0-5.7,4.1-10,10.2-10c6.2,0,10,4.4,10,10
			C248.8,35.1,244.7,39.4,238.6,39.4z M238.7,22c-4.4,0-7.2,3.4-7.2,7.4c0,3.9,2.6,7.3,7.1,7.3c4.5,0,7.2-3.4,7.2-7.3
			C245.8,25.5,243.2,22,238.7,22z"/>
		<path fill="#FFFFFF" d="M255,35.1c1.3,0,2.3,1,2.3,2.3c0,1.2-1,2.2-2.3,2.2c-1.2,0-2.2-0.9-2.2-2.2C252.8,36,253.8,35.1,255,35.1z
			"/>
		<path fill="#FFFFFF" d="M261.4,37.4l11-14.7h-10.7v-2.8h15v1.7l-10.9,14.6h11.4V39h-15.8V37.4z"/>
		<path fill="#FFFFFF" d="M299.8,39.7h-1.5l-5.9-14.7l-5.8,14.7H285l-8.2-19.9h3.4l5.7,14.3h0.1l5.8-14.8h1.3l5.9,14.8h0.1l5.7-14.3
			h3.3L299.8,39.7z"/>
	</g>
	<g>
		<rect x="0.8" y="14.6" fill-rule="evenodd" fill="#FFFFFF" width="3.4" height="35"/>
		
			<rect x="9.8" y="-3.5" transform="matrix(0.6006 0.7995 -0.7995 0.6006 11.5397 -5.7561)" fill-rule="evenodd" fill="#FFFFFF" width="3.4" height="24.3"/>
		
			<rect x="27.1" y="-3.5" transform="matrix(-0.601 0.7992 -0.7992 -0.601 53.1544 -9.1882)" fill-rule="evenodd" fill="#FFFFFF" width="3.4" height="24.3"/>
	</g>
	<path fill="#FFFFFF" d="M21.1,23.9c0.6,0.9,1.5,1.5,2.5,1.9h0.3C23.1,24.9,22.2,24.3,21.1,23.9z"/>
	<path fill="#FFFFFF" d="M29.1,26c1.8-1.2,2.9-3.2,2.9-5.4c0-3.7-3.1-6.6-6.8-6.6c-0.6,0-1.3,0.1-1.9,0.3c-1.1-2.3-3.4-3.9-6-3.9
		c-3.7,0-6.7,3.2-6.7,7.1c0,2.6,1.4,4.9,3.4,6.2c-3.2,0.5-5.6,3.3-5.6,6.7v11.4c0,3.7,3,6.8,6.8,6.8h3.7c0.7,0,1.4-0.1,2-0.3
		c0.6,0.2,1.3,0.3,2,0.3h4.4c3.7,0,6.8-3,6.8-6.8v-9.1C34.1,29.4,32,26.8,29.1,26z M23.8,15.8c0.5-0.1,0.9-0.2,1.4-0.2
		c2.8,0,5.1,2.3,5.1,5.2c0,2.3-1.5,4.3-3.5,5c-0.5,0.2-1.1,0.3-1.6,0.3c-0.4,0-0.8-0.1-1.2-0.1c-0.1,0-0.3-0.1-0.4-0.1
		c-1-0.4-1.9-1-2.5-1.9c-0.1-0.1-0.2-0.3-0.3-0.4c1.9-1.3,3.2-3.5,3.2-6C24,16.9,23.9,16.3,23.8,15.8z M22.8,17.8c0,2-1,3.7-2.5,4.6
		c-0.2-0.5-0.2-1-0.2-1.6c0-1.9,1-3.6,2.5-4.5C22.8,16.8,22.8,17.3,22.8,17.8z M12.6,17.8c0-3,2.3-5.4,5.1-5.4
		c1.8,0,3.3,0.9,4.2,2.4c-2.2,1.1-3.7,3.3-3.7,5.9c0,0.9,0.2,1.7,0.5,2.5c-0.3,0.1-0.7,0.1-1.1,0.1C14.9,23.2,12.6,20.8,12.6,17.8z
		 M17.9,46.2c-0.1,0-0.3,0-0.4,0h-0.4c-3.7,0-6.8-3.1-6.8-6.9v-7.1c0-3.8,3-6.9,6.8-6.9h0.4c1.2,0,2.3,0.3,3.3,0.9
		c-2.7,0.9-4.6,3.4-4.6,6.4v9.1C16.1,43.4,16.8,45,17.9,46.2z M18.2,40.3v-6.6c0-2.8,1.9-5.2,4.5-6.1c1,1.2,1.7,2.8,1.7,4.5v7.1
		c0,2.6-1.4,4.9-3.6,6.1C19.2,44.2,18.2,42.4,18.2,40.3z M32.1,40.3c0,3.6-3,6.5-6.8,6.5h-0.4c-0.5,0-1-0.1-1.5-0.2
		c1.3-1.2,2.2-3,2.2-5V30.3c0-1.1-0.3-2.1-0.7-3c0,0,0,0,0,0h0.4c3.7,0,6.8,2.9,6.8,6.5V40.3z"/>
	<path fill="#FFFFFF" d="M24,25.9c0.4,0.1,0.8,0.1,1.2,0.1c0.6,0,1.1-0.1,1.6-0.3h-3C23.9,25.8,24,25.9,24,25.9z"/>
	<path fill="#FFFFFF" d="M23.6,25.8c0.1,0,0.3,0.1,0.4,0.1c0,0-0.1-0.1-0.1-0.1H23.6z"/>
</g>
</svg>
